<?xml version="1.0" standalone="no"?>
<!DOCTYPE svg PUBLIC "-//W3C//DTD SVG 20010904//EN"
 "http://www.w3.org/TR/2001/REC-SVG-20010904/DTD/svg10.dtd">
<svg version="1.0" xmlns="http://www.w3.org/2000/svg"
 width="2000.000000pt" height="1232.000000pt" viewBox="0 0 2000.000000 1232.000000"
 preserveAspectRatio="xMidYMid meet">

<g transform="translate(0.000000,1232.000000) scale(0.100000,-0.100000)"
fill="#000000" stroke="none">
<path d="M14787 8206 c-3 -30 -12 -67 -20 -83 -14 -26 -158 -234 -190 -273 -7
-8 -28 -40 -47 -70 -31 -48 -147 -214 -285 -407 -45 -63 -101 -107 -152 -118
-53 -12 -53 -12 -32 -54 10 -22 19 -44 19 -50 0 -27 66 -16 127 22 23 14 54
43 70 64 15 21 31 40 36 41 4 2 7 8 7 13 0 5 17 33 37 62 20 28 65 93 99 142
35 50 67 95 71 100 5 6 51 73 103 150 52 76 102 147 110 157 40 48 90 145 96
186 7 49 -10 137 -31 159 -10 9 -14 0 -18 -41z"/>
<path d="M13127 7966 c-6 -62 -24 -100 -82 -176 -23 -30 -66 -91 -95 -135 -30
-44 -57 -82 -61 -85 -3 -3 -11 -15 -18 -27 l-12 -23 35 24 c19 13 63 36 98 51
58 25 68 34 112 101 63 97 80 145 72 212 -5 46 -29 112 -40 112 -2 0 -6 -24
-9 -54z"/>
<path d="M4443 7982 c-76 -31 -91 -68 -107 -262 -8 -98 -59 -286 -101 -372
-15 -31 -45 -78 -67 -104 -59 -71 -68 -92 -89 -194 -5 -26 -8 -288 -7 -595 l3
-550 145 -8 c80 -4 441 -6 803 -5 737 4 677 -3 677 81 l0 48 -50 21 c-27 11
-50 25 -50 29 0 5 -5 9 -11 9 -15 0 -45 37 -67 80 -13 28 -18 74 -22 220 l-6
185 -2 -199 c-2 -198 -2 -199 -29 -242 -36 -57 -86 -79 -178 -79 -60 1 -74 4
-98 25 -42 36 -68 76 -78 118 -5 20 -12 270 -15 555 l-7 517 247 0 c135 0 246
2 246 4 0 2 -18 39 -39 82 -46 92 -86 232 -101 359 -28 228 -38 252 -117 279
-40 14 -105 16 -442 15 -348 0 -401 -2 -438 -17z"/>
<path d="M15128 7910 c-323 -80 -520 -375 -604 -910 -24 -151 -25 -411 -1
-515 23 -100 93 -247 152 -320 25 -30 45 -59 45 -63 0 -5 -35 -58 -78 -118
-42 -60 -94 -134 -114 -165 -61 -92 -143 -139 -242 -139 -46 0 -119 30 -153
62 -32 30 -38 17 -14 -29 47 -94 145 -149 247 -141 29 3 54 3 54 1 0 -7 -25
-48 -36 -58 -17 -15 -135 -185 -142 -204 -3 -9 14 2 39 23 169 151 210 187
264 237 146 135 249 228 283 256 23 18 88 182 118 298 9 33 19 65 23 70 9 13
31 87 31 107 0 8 -10 25 -22 38 -22 23 -23 32 -22 175 1 222 31 305 113 305
39 0 101 -20 101 -32 0 -4 5 -8 11 -8 6 0 19 -10 29 -22 l17 -22 7 22 7 21 62
-23 c34 -13 91 -37 127 -53 36 -17 75 -34 87 -37 16 -5 24 -19 32 -57 14 -66
33 -100 78 -143 114 -109 292 -70 363 79 11 22 20 55 20 73 0 28 3 32 25 32
16 0 28 -7 31 -17 29 -93 67 -136 134 -154 61 -16 112 -5 157 34 49 43 73 99
73 172 0 250 -291 296 -361 58 -10 -35 -17 -43 -35 -43 -18 0 -25 8 -33 38
-14 52 -71 115 -126 141 -59 28 -137 28 -190 0 -54 -27 -112 -92 -126 -139
l-12 -38 -66 28 c-143 61 -201 87 -208 93 -3 4 6 38 21 77 24 61 41 83 129
172 124 123 251 226 331 270 85 45 156 46 247 1 36 -18 86 -51 111 -73 l46
-40 7 -91 7 -91 29 34 c69 81 99 230 64 327 -60 172 -305 356 -596 449 -224
71 -394 88 -541 52z m761 -1088 c97 -78 111 -223 29 -313 -81 -90 -228 -79
-295 23 -38 56 -44 157 -15 214 42 81 103 116 191 109 41 -3 63 -11 90 -33z
m429 18 c95 -58 95 -252 -1 -310 -101 -62 -226 36 -213 168 12 128 120 199
214 142z"/>
<path d="M13000 7281 c-25 -4 -65 -17 -90 -30 -152 -78 -181 -224 -84 -423
l18 -38 98 0 98 0 6 28 c3 15 14 56 24 92 10 36 21 81 25 100 9 43 22 60 46
60 20 0 17 8 60 -170 l33 -135 12 55 c37 160 64 291 64 309 0 29 -99 113 -156
133 -65 22 -99 26 -154 19z"/>
<path d="M13475 7254 c-94 -48 -91 -33 -56 -260 17 -110 35 -212 40 -229 l8
-30 17 38 c9 20 23 53 31 72 l15 35 159 0 159 0 16 47 c49 142 -11 280 -146
334 -68 28 -181 25 -243 -7z"/>
<path d="M12576 7228 c-10 -39 -7 -44 9 -14 17 33 18 36 6 36 -5 0 -11 -10
-15 -22z"/>
<path d="M12110 7210 c0 -5 5 -10 10 -10 6 0 10 5 10 10 0 6 -4 10 -10 10 -5
0 -10 -4 -10 -10z"/>
<path d="M12501 7104 c0 -11 3 -14 6 -6 3 7 2 16 -1 19 -3 4 -6 -2 -5 -13z"/>
<path d="M12526 7094 c-10 -38 0 -41 12 -5 6 17 7 31 3 31 -5 0 -12 -12 -15
-26z"/>
<path d="M12490 7043 c0 -18 2 -33 4 -33 9 0 13 39 5 51 -6 10 -9 4 -9 -18z"/>
<path d="M13331 6915 c-13 -55 -29 -125 -36 -155 -7 -30 -16 -75 -20 -100 -15
-94 -55 -94 -79 1 -7 30 -24 99 -36 154 -19 80 -25 95 -31 75 -4 -14 -17 -58
-28 -97 l-22 -73 -95 0 -96 0 44 -52 c92 -113 358 -348 392 -348 25 0 203 149
307 256 89 93 179 210 179 233 0 18 -225 14 -239 -3 -7 -8 -30 -54 -51 -102
-60 -135 -91 -145 -108 -36 -6 37 -20 126 -32 197 -11 72 -22 134 -24 140 -1
5 -13 -35 -25 -90z"/>
<path d="M12502 6950 c0 -14 2 -19 5 -12 2 6 2 18 0 25 -3 6 -5 1 -5 -13z"/>
<path d="M12493 6825 c0 -33 2 -45 4 -27 2 18 2 45 0 60 -2 15 -4 0 -4 -33z"/>
<path d="M12491 6704 c0 -11 3 -14 6 -6 3 7 2 16 -1 19 -3 4 -6 -2 -5 -13z"/>
<path d="M12521 6644 c-2 -34 11 -84 21 -84 5 0 6 4 3 10 -3 5 -10 29 -14 52
-5 24 -9 33 -10 22z"/>
<path d="M11812 6585 c0 -16 2 -22 5 -12 2 9 2 23 0 30 -3 6 -5 -1 -5 -18z"/>
<path d="M7621 6574 c0 -11 3 -14 6 -6 3 7 2 16 -1 19 -3 4 -6 -2 -5 -13z"/>
<path d="M7174 6400 c0 -91 2 -128 3 -82 2 45 2 119 0 165 -1 45 -3 8 -3 -83z"/>
<path d="M11813 6298 c5 -142 10 -613 7 -765 l0 -23 -2750 0 -2750 0 0 305 c0
168 -3 305 -7 305 -5 0 -23 -15 -41 -34 -49 -51 -158 -64 -219 -26 l-33 20 1
-1518 c0 -963 4 -1505 10 -1484 11 37 12 37 98 17 54 -13 65 -13 75 -1 6 7 18
16 26 19 10 4 8 6 -6 6 -22 1 -22 3 -17 169 4 150 14 318 30 487 3 33 12 69
19 80 7 12 15 30 17 40 3 24 38 78 45 71 3 -3 26 12 51 33 25 21 60 43 76 49
l30 10 -35 2 c-19 1 -43 1 -54 0 -10 -1 -29 1 -42 4 l-24 6 0 644 0 644 25 6
c32 8 5461 3 5470 -5 6 -6 8 -1289 3 -1294 -6 -5 -552 -9 -780 -7 -131 2 -242
1 -248 -3 -15 -10 -12 -25 8 -32 31 -12 157 -87 164 -97 5 -7 151 -13 433 -16
l426 -5 0 -662 c-1 -645 -1 -662 18 -668 11 -3 37 -5 59 -4 87 6 112 -42 112
-209 0 -92 2 -103 18 -101 9 1 61 1 115 0 l97 -1 0 -550 0 -550 415 0 c401 0
416 1 458 21 60 29 90 76 98 158 4 36 8 244 8 461 l0 395 41 7 c99 17 142 51
235 184 27 38 75 106 107 151 32 45 58 86 58 92 0 6 4 11 8 11 4 0 16 13 25
30 10 16 23 35 31 42 7 7 34 46 60 86 l48 72 -7 70 c-4 39 -11 70 -15 70 -4 0
-38 -44 -74 -97 -37 -54 -88 -127 -113 -163 -24 -36 -85 -123 -135 -195 -50
-71 -105 -145 -122 -163 -33 -36 -102 -72 -136 -72 l-22 0 7 816 8 817 40 60
c21 32 45 67 53 76 7 9 69 97 138 196 69 99 128 185 133 190 5 6 19 26 33 45
13 19 27 37 30 40 9 9 30 44 52 90 31 62 31 160 1 215 l-22 40 -1 -41 c0 -23
-5 -56 -11 -75 -10 -28 -241 -369 -386 -569 -18 -25 -38 -55 -43 -68 -30 -70
-32 -7 -25 877 4 487 10 888 14 891 17 12 72 101 67 109 -3 4 -40 11 -81 15
-90 8 -219 52 -307 103 -77 46 -231 198 -278 276 l-34 57 -395 0 -394 0 6
-182z"/>
<path d="M9298 6200 c-2 -22 0 -40 4 -40 5 0 8 18 8 40 0 22 -2 40 -4 40 -2 0
-6 -18 -8 -40z"/>
<path d="M10501 6224 c0 -11 3 -14 6 -6 3 7 2 16 -1 19 -3 4 -6 -2 -5 -13z"/>
<path d="M5952 6180 c0 -14 2 -19 5 -12 2 6 2 18 0 25 -3 6 -5 1 -5 -13z"/>
<path d="M5984 6187 c-3 -9 -3 -20 0 -26 3 -5 0 -11 -6 -14 -10 -3 -10 -7 -1
-17 9 -10 13 -5 19 24 7 38 -1 61 -12 33z"/>
<path d="M8441 6173 c-17 -43 -15 -48 14 -50 25 -2 33 15 16 33 -5 5 -11 18
-14 29 -3 17 -6 15 -16 -12z"/>
<path d="M8817 6186 c-4 -10 -5 -21 -2 -24 9 -9 17 6 13 25 -3 17 -4 17 -11
-1z"/>
<path d="M9690 6179 c0 -15 -9 -37 -19 -51 -11 -13 -23 -37 -26 -51 -4 -15
-11 -27 -15 -27 -5 0 -16 -7 -24 -16 -14 -13 -16 -50 -16 -247 0 -128 4 -238
9 -246 12 -19 329 -23 349 -4 9 9 12 72 12 251 l0 239 -53 6 c-59 6 -146 45
-147 65 0 6 -5 12 -10 12 -6 0 -16 12 -22 28 l-12 27 -7 -40 -7 -40 3 47 c1
26 -2 53 -6 60 -6 9 -9 5 -9 -13z m203 -219 c4 0 7 -81 7 -179 0 -154 -2 -180
-16 -185 -9 -3 -60 -6 -114 -6 -76 0 -102 4 -114 16 -13 13 -16 43 -15 177 0
89 4 166 9 172 6 8 128 11 243 5z"/>
<path d="M5451 6183 c-1 -6 -4 -20 -7 -30 -5 -17 -5 -17 6 0 6 10 9 23 6 30
-3 9 -5 9 -5 0z"/>
<path d="M7131 6174 c0 -11 3 -14 6 -6 3 7 2 16 -1 19 -3 4 -6 -2 -5 -13z"/>
<path d="M8851 6174 c0 -11 3 -14 6 -6 3 7 2 16 -1 19 -3 4 -6 -2 -5 -13z"/>
<path d="M9275 6141 c-3 -6 10 -8 32 -5 49 6 55 14 10 14 -20 0 -38 -4 -42 -9z"/>
<path d="M7574 6098 c-10 -16 -28 -34 -39 -38 -13 -6 10 -9 65 -8 80 0 82 1
32 8 -62 9 -65 11 -46 28 12 11 14 10 14 -3 0 -11 11 -15 41 -15 24 0 38 4 34
10 -3 6 -12 10 -20 10 -7 0 -15 6 -18 14 -11 27 -43 24 -63 -6z"/>
<path d="M8824 6103 c-11 -14 -31 -27 -45 -28 -19 -1 -24 -7 -24 -30 0 -29 1
-29 68 -33 76 -4 102 2 90 20 -4 7 -6 23 -5 35 8 59 -46 83 -84 36z m-34 -47
c0 -3 -4 -8 -10 -11 -5 -3 -10 -1 -10 4 0 6 5 11 10 11 6 0 10 -2 10 -4z"/>
<path d="M9351 6114 c0 -11 3 -14 6 -6 3 7 2 16 -1 19 -3 4 -6 -2 -5 -13z"/>
<path d="M10937 6104 c-12 -16 -14 -24 -6 -24 7 0 4 -7 -7 -16 -18 -14 -17
-15 21 -10 22 3 47 6 55 7 8 1 2 4 -14 8 -16 3 -31 13 -33 21 -4 12 -3 12 5 2
8 -12 13 -12 31 -1 23 15 27 29 9 30 -7 0 -20 2 -28 4 -8 1 -23 -8 -33 -21z"/>
<path d="M7840 6065 c0 -8 2 -15 4 -15 2 0 6 7 10 15 3 8 1 15 -4 15 -6 0 -10
-7 -10 -15z"/>
<path d="M7885 6070 c3 -5 8 -10 11 -10 2 0 4 5 4 10 0 6 -5 10 -11 10 -5 0
-7 -4 -4 -10z"/>
<path d="M9390 6076 c0 -2 9 -6 20 -9 11 -3 18 -1 14 4 -5 9 -34 13 -34 5z"/>
<path d="M9570 6070 c0 -5 5 -10 10 -10 6 0 10 5 10 10 0 6 -4 10 -10 10 -5 0
-10 -4 -10 -10z"/>
<path d="M10418 6073 c7 -3 16 -2 19 1 4 3 -2 6 -13 5 -11 0 -14 -3 -6 -6z"/>
<path d="M6925 6060 c3 -5 13 -10 21 -10 8 0 14 5 14 10 0 6 -9 10 -21 10 -11
0 -17 -4 -14 -10z"/>
<path d="M9530 6060 c0 -5 5 -10 10 -10 6 0 10 5 10 10 0 6 -4 10 -10 10 -5 0
-10 -4 -10 -10z"/>
<path d="M7768 6053 c6 -2 18 -2 25 0 6 3 1 5 -13 5 -14 0 -19 -2 -12 -5z"/>
<path d="M10318 6048 c17 -8 26 -8 34 0 9 9 4 12 -22 11 -33 0 -34 -1 -12 -11z"/>
<path d="M7031 5999 c7 -5 54 -9 102 -9 56 0 86 -4 82 -10 -3 -5 -44 -10 -91
-10 -49 0 -84 4 -84 10 0 6 -4 10 -10 10 -5 0 -10 -7 -10 -15 0 -13 21 -15
133 -14 72 1 124 3 114 6 -10 2 -16 12 -15 21 3 15 -11 17 -116 19 -76 1 -115
-2 -105 -8z"/>
<path d="M10268 5933 c-57 -15 24 -21 167 -12 l30 1 -30 8 c-33 8 -140 10
-167 3z"/>
<path d="M10203 5888 c-19 -36 -22 -56 -23 -138 0 -31 -6 -58 -13 -63 -9 -6
-8 -7 3 -4 10 2 17 21 20 58 6 58 7 56 24 -41 2 -14 4 4 4 40 0 36 0 71 1 78
1 8 25 12 87 12 91 0 105 6 124 54 8 23 7 26 -10 26 -15 0 -20 -7 -20 -25 0
-25 -1 -25 -80 -25 -47 0 -80 -4 -80 -10 0 -5 -5 -10 -11 -10 -6 0 -8 7 -5 16
25 66 10 89 -21 32z"/>
<path d="M10440 5879 c0 -5 4 -8 9 -5 14 9 33 -87 26 -131 -5 -35 -5 -37 11
-21 32 32 26 173 -7 153 -5 -4 -9 -1 -9 4 0 6 -7 11 -15 11 -8 0 -15 -5 -15
-11z"/>
<path d="M10425 5830 c3 -5 10 -10 16 -10 5 0 9 5 9 10 0 6 -7 10 -16 10 -8 0
-12 -4 -9 -10z"/>
<path d="M10470 5685 c-10 -12 -31 -14 -118 -8 -95 6 -106 4 -118 -12 -10 -14
-14 -15 -14 -4 0 12 -2 12 -10 -1 -17 -27 -12 -60 10 -60 11 0 20 5 20 10 0 6
36 10 88 10 48 0 94 4 101 9 15 10 51 -3 51 -17 0 -4 -18 -16 -40 -26 -22 -11
-40 -23 -40 -28 0 -11 43 -10 74 2 24 9 26 14 26 75 0 65 -7 78 -30 50z"/>
<path d="M10202 5574 c1 -9 9 -19 16 -22 9 -3 13 2 10 14 -1 9 -9 19 -16 22
-9 3 -13 -2 -10 -14z"/>
<path d="M4094 5192 c-43 -14 -94 -58 -119 -103 l-25 -47 0 -1678 0 -1679 26
-50 c17 -35 39 -59 72 -80 l47 -30 791 0 791 0 49 30 c34 21 56 44 72 75 l22
45 -2 1701 -3 1702 -31 39 c-17 21 -48 48 -70 60 l-39 23 -780 -1 c-429 -1
-789 -4 -801 -7z m1484 -2158 c29 -20 30 -76 2 -104 -20 -20 -33 -20 -685 -20
-486 0 -671 3 -690 12 -45 20 -46 100 -2 118 12 5 321 9 687 9 587 1 668 -1
688 -15z m0 -390 c26 -18 30 -69 8 -100 -14 -18 -34 -19 -689 -22 -671 -2
-674 -2 -700 19 -33 25 -36 70 -7 99 20 20 33 20 693 20 593 0 675 -2 695 -16z
m4 -391 c26 -23 24 -84 -2 -101 -16 -10 -168 -12 -698 -12 l-677 0 -17 21
c-24 28 -23 64 2 89 20 20 33 20 697 20 615 0 678 -1 695 -17z"/>
<path d="M7133 5052 c-52 -55 -251 -116 -452 -138 -75 -8 -119 -40 -155 -113
-46 -91 -48 -82 78 -341 25 -52 46 -100 46 -106 0 -16 16 -21 91 -28 59 -6 67
-4 104 22 50 35 70 96 39 121 -65 54 -55 193 17 232 20 10 26 8 46 -15 13 -15
23 -36 23 -47 0 -36 16 -19 35 36 10 31 23 59 29 64 6 5 43 12 82 16 l71 7 7
-42 c3 -23 11 -40 17 -38 5 2 29 44 52 93 66 141 58 213 -31 271 -39 26 -78
28 -99 6z"/>
<path d="M16006 4979 c-3 -13 -15 -78 -26 -144 -12 -66 -23 -121 -25 -124 -3
-2 -100 33 -217 78 -117 46 -221 85 -231 88 -12 4 -3 -16 31 -68 92 -140 267
-471 323 -612 129 -323 214 -605 254 -833 14 -81 25 -157 25 -170 0 -13 4 -25
9 -29 6 -3 43 3 83 14 40 10 87 18 105 18 25 0 42 10 78 46 l47 46 13 133 c8
73 19 214 25 313 7 99 12 180 13 181 1 1 21 13 45 28 23 14 42 30 42 34 0 7
-146 74 -259 118 -43 17 -43 17 -37 58 4 23 10 44 14 48 4 3 72 -21 152 -54
80 -33 167 -68 193 -78 48 -19 77 -18 77 3 0 13 -117 218 -178 311 -122 187
-279 377 -367 446 -22 17 -72 63 -112 102 -67 66 -72 69 -77 47z"/>
<path d="M10471 4925 c-149 -34 -215 -124 -180 -247 5 -21 13 -38 17 -38 4 0
18 37 31 81 l25 81 33 -70 c51 -109 108 -144 173 -107 44 25 76 19 94 -19 14
-30 23 -71 25 -115 1 -11 5 -11 19 2 20 19 59 22 82 7 22 -14 20 -121 -2 -143
-9 -9 -18 -21 -20 -27 -2 -6 -14 -12 -28 -14 -31 -3 -84 -51 -75 -67 6 -8 10
-7 17 5 9 17 38 22 38 7 0 -5 -7 -12 -16 -15 -8 -3 -12 -10 -9 -16 4 -6 11 -8
16 -5 5 4 12 -1 15 -9 14 -35 114 -8 167 44 21 22 59 51 83 65 150 88 109 363
-51 342 -37 -5 -43 -3 -52 16 -24 51 -135 187 -177 216 -55 38 -131 47 -225
26z"/>
<path d="M8524 4761 c-2 -2 -4 -26 -4 -53 l0 -48 135 0 135 0 0 50 c0 45 -2
50 -22 51 -128 3 -240 3 -244 0z"/>
<path d="M7525 4740 c3 -6 48 -10 99 -10 74 0 93 -3 93 -15 0 -16 -24 -28 -38
-19 -5 3 -7 10 -4 15 4 5 -16 9 -45 9 -28 0 -49 -4 -46 -9 3 -5 16 -7 29 -5
20 4 21 4 2 -5 -32 -15 -55 -13 -49 4 4 8 2 15 -4 15 -5 0 -12 -11 -14 -25
l-5 -25 110 0 c104 0 109 1 104 20 -3 11 -1 23 4 26 5 3 9 -4 9 -16 0 -12 4
-19 9 -15 6 3 6 17 -1 35 l-10 30 -125 0 c-80 0 -122 -4 -118 -10z"/>
<path d="M9472 4738 c3 -7 14 -17 26 -23 15 -6 20 -15 16 -27 -5 -16 4 -18 95
-18 61 0 101 4 101 10 0 6 -6 10 -12 10 -8 1 -6 6 5 14 14 11 15 15 5 19 -10
4 -10 6 0 6 6 1 12 6 12 11 0 6 -49 10 -126 10 -96 0 -125 -3 -122 -12z m114
-29 c0 -11 -7 -19 -18 -19 -21 0 -32 17 -16 23 7 3 1 6 -14 6 -16 1 -28 4 -28
9 0 4 17 6 38 4 29 -3 38 -8 38 -23z m90 11 c-10 -3 -17 -10 -17 -15 1 -6 -7
-10 -16 -10 -10 0 -17 6 -15 13 1 6 -6 13 -15 13 -10 1 -4 4 12 8 17 4 39 5
49 2 18 -4 19 -5 2 -11z"/>
<path d="M9129 4728 c-8 -7 -12 -12 -10 -11 2 2 10 -5 17 -15 10 -13 15 -14
25 -5 12 12 6 43 -9 43 -4 0 -15 -6 -23 -12z"/>
<path d="M8006 4715 c4 -8 1 -15 -5 -15 -6 0 -11 5 -11 10 0 6 -4 10 -10 10
-5 0 -10 -25 -10 -56 0 -46 3 -55 15 -50 24 9 17 -18 -7 -29 -23 -10 -23 -11
-25 -265 l-2 -255 -108 -6 c-59 -4 -284 -6 -500 -4 -326 2 -390 0 -386 -11 4
-10 -4 -14 -27 -14 -20 0 -29 -4 -24 -11 3 -6 19 -9 35 -5 18 3 31 1 36 -8 4
-7 24 -32 43 -55 l34 -41 1603 0 1603 0 81 45 c45 25 88 45 96 45 14 0 52 38
53 53 0 4 -56 7 -125 7 -77 0 -125 4 -125 10 0 6 5 10 10 10 6 0 10 86 10 239
0 256 -3 271 -51 271 -10 0 -19 7 -19 15 0 8 6 14 12 13 7 -2 13 3 12 10 -1 6
-2 31 -2 53 -2 38 -4 40 -19 28 -15 -12 -16 -12 -10 5 6 16 5 17 -7 7 -8 -7
-17 -27 -19 -44 -3 -22 -4 -18 -3 11 l1 42 -78 0 -78 0 2 -50 c2 -27 0 -53 -4
-56 -4 -4 -7 16 -7 44 0 48 -12 68 -23 40 -4 -10 -6 -10 -6 0 -1 15 -31 16
-31 1 0 -5 -4 -7 -10 -4 -6 4 -10 -12 -10 -39 0 -35 4 -46 16 -46 22 0 12 -23
-15 -35 -12 -5 -24 -19 -27 -30 -3 -11 -4 -127 -2 -257 l3 -235 -145 -6 c-126
-4 -978 -3 -1310 1 l-115 2 3 249 c3 218 1 251 -13 265 -9 9 -25 16 -36 16
-10 0 -19 7 -19 15 0 9 6 12 15 9 12 -5 15 3 15 43 0 27 -5 54 -12 61 -8 8
-54 12 -140 12 -109 0 -127 -2 -122 -15z m29 -39 c0 -24 -3 -42 -7 -39 -5 2
-8 22 -8 44 0 21 3 39 8 39 4 0 7 -20 7 -44z m35 35 c0 -6 -4 -13 -10 -16 -5
-3 -10 1 -10 9 0 9 5 16 10 16 6 0 10 -4 10 -9z m27 -13 c-3 -8 -6 -5 -6 6 -1
11 2 17 5 13 3 -3 4 -12 1 -19z m33 6 c0 -8 -4 -12 -10 -9 -5 3 -10 10 -10 16
0 5 5 9 10 9 6 0 10 -7 10 -16z m40 12 c0 -3 -4 -8 -10 -11 -5 -3 -10 -1 -10
4 0 6 5 11 10 11 6 0 10 -2 10 -4z m30 -6 c0 -5 -2 -10 -4 -10 -3 0 -8 5 -11
10 -3 6 -1 10 4 10 6 0 11 -4 11 -10z m30 0 c0 -5 -2 -10 -4 -10 -3 0 -8 5
-11 10 -3 6 -1 10 4 10 6 0 11 -4 11 -10z m1810 6 c0 -11 -19 -15 -25 -6 -3 5
1 10 9 10 9 0 16 -2 16 -4z m30 -6 c0 -5 -4 -10 -10 -10 -5 0 -10 5 -10 10 0
6 5 10 10 10 6 0 10 -4 10 -10z m30 6 c0 -3 -4 -8 -10 -11 -5 -3 -10 -1 -10 4
0 6 5 11 10 11 6 0 10 -2 10 -4z m27 -18 c-3 -8 -6 -5 -6 6 -1 11 2 17 5 13 3
-3 4 -12 1 -19z m-2035 -60 c-6 -6 -7 0 -4 19 5 21 7 23 10 9 2 -10 0 -22 -6
-28z m1875 -5 c-3 -10 -5 -2 -5 17 0 19 2 27 5 18 2 -10 2 -26 0 -35z m100 0
c-3 -10 -5 -2 -5 17 0 19 2 27 5 18 2 -10 2 -26 0 -35z m-1820 5 c-3 -7 -5 -2
-5 12 0 14 2 19 5 13 2 -7 2 -19 0 -25z m1690 10 c-3 -8 -6 -5 -6 6 -1 11 2
17 5 13 3 -3 4 -12 1 -19z m100 -10 c-3 -7 -5 -2 -5 12 0 14 2 19 5 13 2 -7 2
-19 0 -25z m-1880 0 c-3 -8 -6 -5 -6 6 -1 11 2 17 5 13 3 -3 4 -12 1 -19z m90
-140 c18 -14 18 -339 1 -356 -8 -8 -50 -12 -125 -12 -101 0 -113 2 -123 19
-11 22 -14 320 -2 338 13 20 227 30 249 11z m1941 0 c17 -14 17 -339 0 -356
-17 -17 -229 -17 -246 0 -17 17 -17 339 1 357 15 15 225 14 245 -1z"/>
<path d="M19135 4690 c-3 -5 -1 -10 4 -10 6 0 11 5 11 10 0 6 -2 10 -4 10 -3
0 -8 -4 -11 -10z"/>
<path d="M9470 4680 c0 -5 5 -10 10 -10 6 0 10 5 10 10 0 6 -4 10 -10 10 -5 0
-10 -4 -10 -10z"/>
<path d="M7232 4662 c-28 -8 -27 -5 -18 -64 6 -38 11 -48 27 -48 17 0 19 7 19
60 0 33 -1 60 -2 59 -2 -1 -13 -4 -26 -7z"/>
<path d="M9063 4652 c-7 -8 -11 -22 -8 -32 3 -9 1 -29 -4 -44 l-11 -26 79 0
78 0 1 55 c0 35 -4 55 -11 56 -72 6 -112 3 -124 -9z"/>
<path d="M11239 4653 c-7 -7 -6 -13 0 -17 6 -4 8 -13 4 -21 -7 -19 16 -20 31
-1 8 10 44 15 121 18 61 3 94 2 75 -2 l-35 -7 40 -3 c26 -2 32 -4 17 -7 -28
-6 -19 -23 13 -23 16 0 25 7 29 26 13 50 -4 56 -152 52 -86 -2 -137 -7 -143
-15z"/>
<path d="M19018 4643 c7 -3 16 -2 19 1 4 3 -2 6 -13 5 -11 0 -14 -3 -6 -6z"/>
<path d="M19041 4614 c0 -11 3 -14 6 -6 3 7 2 16 -1 19 -3 4 -6 -2 -5 -13z"/>
<path d="M19072 4610 c-17 -27 -15 -35 4 -16 8 9 14 21 12 26 -2 6 -9 1 -16
-10z"/>
<path d="M11318 4603 c23 -2 61 -2 85 0 23 2 4 4 -43 4 -47 0 -66 -2 -42 -4z"/>
<path d="M18030 4600 c0 -5 5 -10 11 -10 5 0 7 5 4 10 -3 6 -8 10 -11 10 -2 0
-4 -4 -4 -10z"/>
<path d="M18961 4544 c0 -11 3 -14 6 -6 3 7 2 16 -1 19 -3 4 -6 -2 -5 -13z"/>
<path d="M19000 4535 c-7 -9 -11 -18 -8 -20 3 -3 11 1 18 10 7 9 11 18 8 20
-3 3 -11 -1 -18 -10z"/>
<path d="M17987 4501 c-4 -17 -3 -21 5 -13 5 5 8 16 6 23 -3 8 -7 3 -11 -10z"/>
<path d="M17905 4430 c-3 -5 -1 -10 4 -10 6 0 11 5 11 10 0 6 -2 10 -4 10 -3
0 -8 -4 -11 -10z"/>
<path d="M18910 4405 c-11 -13 -10 -14 4 -9 9 3 16 10 16 15 0 13 -6 11 -20
-6z"/>
<path d="M17865 4360 c-3 -5 1 -10 9 -10 9 0 16 5 16 10 0 6 -4 10 -9 10 -6 0
-13 -4 -16 -10z"/>
<path d="M18841 4294 c0 -11 3 -14 6 -6 3 7 2 16 -1 19 -3 4 -6 -2 -5 -13z"/>
<path d="M18756 4211 c-4 -7 -5 -15 -2 -18 9 -9 19 4 14 18 -4 11 -6 11 -12 0z"/>
<path d="M18723 4170 c2 -8 -2 -23 -11 -32 -9 -11 -11 -18 -4 -18 18 0 32 34
21 51 -9 12 -10 12 -6 -1z"/>
<path d="M6840 4040 c20 -13 53 -13 45 0 -3 6 -18 10 -33 10 -21 0 -24 -2 -12
-10z"/>
<path d="M17635 4029 c-4 -6 -5 -12 -2 -15 2 -3 7 2 10 11 7 17 1 20 -8 4z"/>
<path d="M18596 3986 c3 -9 11 -16 16 -16 13 0 5 23 -10 28 -7 2 -10 -2 -6
-12z"/>
<path d="M18515 3891 c-3 -5 -1 -12 5 -16 5 -3 10 1 10 9 0 18 -6 21 -15 7z"/>
<path d="M7021 3861 c-7 -13 -21 -21 -36 -21 -15 0 -25 -6 -25 -14 0 -7 -9
-16 -21 -19 -11 -3 -23 -15 -26 -26 -3 -12 -12 -21 -19 -21 -8 0 -22 -17 -32
-37 -9 -21 -20 -39 -24 -41 -12 -5 -9 -82 2 -82 6 0 10 -15 10 -33 0 -18 7
-42 15 -53 8 -10 15 -31 15 -46 0 -16 5 -28 10 -28 6 0 10 -8 10 -18 0 -10 7
-27 15 -38 8 -10 15 -25 15 -33 0 -18 61 -145 72 -149 4 -2 8 -19 8 -38 0 -22
6 -37 15 -40 8 -4 15 -18 15 -33 0 -15 4 -31 9 -36 5 -6 11 -23 13 -40 2 -25
7 -30 26 -28 12 2 35 14 50 28 15 14 35 25 44 25 10 0 18 6 18 13 0 8 11 20
25 27 14 7 25 18 25 24 0 6 12 17 28 23 15 7 41 26 59 43 18 16 37 30 42 30 6
0 11 1 11 3 0 16 -106 265 -120 282 -6 7 -13 23 -15 36 -3 13 -15 46 -28 74
-13 27 -33 79 -46 115 -12 35 -31 74 -41 85 -11 12 -20 26 -20 31 0 6 -17 16
-37 23 -21 8 -41 18 -44 24 -4 5 -12 0 -18 -12z"/>
<path d="M10805 3870 c-3 -5 -1 -10 4 -10 6 0 11 5 11 10 0 6 -2 10 -4 10 -3
0 -8 -4 -11 -10z"/>
<path d="M18482 3849 c3 -8 -1 -22 -10 -31 -8 -10 -11 -18 -6 -18 5 0 17 8 25
18 14 16 14 20 1 32 -13 11 -14 11 -10 -1z"/>
<path d="M18420 3829 c0 -5 5 -7 10 -4 6 3 10 8 10 11 0 2 -4 4 -10 4 -5 0
-10 -5 -10 -11z"/>
<path d="M17475 3789 c-4 -6 -5 -12 -2 -15 2 -3 7 2 10 11 7 17 1 20 -8 4z"/>
<path d="M18436 3763 c-6 -14 -5 -15 5 -6 7 7 10 15 7 18 -3 3 -9 -2 -12 -12z"/>
<path d="M17256 3745 c-3 -9 -6 -29 -5 -43 1 -22 3 -19 10 12 10 40 6 60 -5
31z"/>
<path d="M7712 3700 c-22 -20 -22 -26 -22 -289 0 -147 3 -270 6 -274 3 -3 62
31 130 76 117 78 124 84 124 116 0 26 10 45 45 82 25 26 45 53 45 60 0 6 10
24 21 41 28 39 44 24 30 -28 -8 -30 -8 -42 3 -52 25 -25 77 17 146 118 47 69
57 77 75 59 35 -38 48 -219 19 -268 -20 -34 -23 -36 -193 -121 l-137 -69 -114
-123 c-63 -68 -127 -136 -143 -151 -15 -15 -25 -32 -22 -37 4 -6 95 -10 221
-10 l214 0 0 185 c0 226 -9 214 162 219 109 4 143 -2 160 -28 4 -6 8 -93 8
-193 l0 -183 249 0 250 0 20 26 c20 26 21 37 21 424 l0 397 -23 21 -23 22
-625 0 c-615 0 -626 0 -647 -20z"/>
<path d="M9214 3706 c-3 -7 -3 -61 -2 -121 l3 -110 28 -2 c24 -2 31 4 42 31 8
19 26 47 40 64 l26 31 49 -19 c71 -28 86 -39 104 -78 l16 -34 63 4 62 4 5 114
c3 71 1 118 -5 122 -18 13 -426 7 -431 -6z"/>
<path d="M18030 3660 c0 -6 21 -8 58 -4 77 9 78 14 4 14 -35 0 -62 -4 -62 -10z"/>
<path d="M18178 3643 c7 -3 16 -2 19 1 4 3 -2 6 -13 5 -11 0 -14 -3 -6 -6z"/>
<path d="M18562 3620 c0 -14 2 -19 5 -12 2 6 2 18 0 25 -3 6 -5 1 -5 -13z"/>
<path d="M17320 3555 c0 -15 18 -40 24 -34 3 3 -1 14 -9 25 -8 10 -14 15 -15
9z"/>
<path d="M17920 3500 c0 -5 9 -10 21 -10 11 0 17 5 14 10 -3 6 -13 10 -21 10
-8 0 -14 -4 -14 -10z"/>
<path d="M17247 3423 c-4 -3 -7 -11 -7 -17 0 -6 5 -5 12 2 6 6 9 14 7 17 -3 3
-9 2 -12 -2z"/>
<path d="M17881 3394 c0 -11 3 -14 6 -6 3 7 2 16 -1 19 -3 4 -6 -2 -5 -13z"/>
<path d="M17842 3355 c0 -16 2 -22 5 -12 2 9 2 23 0 30 -3 6 -5 -1 -5 -18z"/>
<path d="M17186 3351 c-4 -7 -5 -15 -2 -18 9 -9 19 4 14 18 -4 11 -6 11 -12 0z"/>
<path d="M17850 3260 c-8 -5 -12 -12 -9 -15 4 -3 12 1 19 10 14 17 11 19 -10
5z"/>
<path d="M17111 3234 c0 -11 3 -14 6 -6 3 7 2 16 -1 19 -3 4 -6 -2 -5 -13z"/>
<path d="M17025 3225 c-5 -11 -28 -52 -52 -91 -24 -39 -43 -75 -43 -80 -1 -23
-52 -62 -263 -203 -126 -84 -230 -158 -233 -166 -5 -13 27 -192 83 -463 14
-68 23 -125 21 -128 -3 -2 -54 -13 -114 -24 -60 -11 -132 -25 -160 -30 l-51
-11 -7 -447 c-4 -246 -9 -467 -13 -491 l-5 -44 328 7 c181 4 330 9 332 10 6 7
90 990 90 1051 -1 39 9 162 21 275 48 435 67 640 59 640 -4 0 -8 -4 -8 -10 0
-5 -13 -10 -30 -10 -24 0 -28 3 -23 17 4 11 8 12 11 5 2 -7 8 -12 14 -12 6 0
7 7 4 16 -4 10 6 36 24 65 26 40 31 56 28 96 -3 38 -5 44 -13 28z"/>
<path d="M17768 3193 c7 -3 16 -2 19 1 4 3 -2 6 -13 5 -11 0 -14 -3 -6 -6z"/>
<path d="M17840 3180 c0 -5 4 -10 9 -10 6 0 13 5 16 10 3 6 -1 10 -9 10 -9 0
-16 -4 -16 -10z"/>
<path d="M17928 3163 c7 -3 16 -2 19 1 4 3 -2 6 -13 5 -11 0 -14 -3 -6 -6z"/>
<path d="M17050 3150 c0 -5 5 -10 10 -10 6 0 10 5 10 10 0 6 -4 10 -10 10 -5
0 -10 -4 -10 -10z"/>
<path d="M17600 3109 c0 -5 5 -7 10 -4 6 3 10 8 10 11 0 2 -4 4 -10 4 -5 0
-10 -5 -10 -11z"/>
<path d="M17668 3113 c7 -3 16 -2 19 1 4 3 -2 6 -13 5 -11 0 -14 -3 -6 -6z"/>
<path d="M17500 3100 c14 -4 36 -8 50 -8 22 0 22 1 -5 8 -16 4 -39 8 -50 8
-16 0 -15 -2 5 -8z"/>
<path d="M17288 3093 c6 -2 18 -2 25 0 6 3 1 5 -13 5 -14 0 -19 -2 -12 -5z"/>
<path d="M17408 3073 c6 -2 18 -2 25 0 6 3 1 5 -13 5 -14 0 -19 -2 -12 -5z"/>
<path d="M6218 3063 c7 -3 16 -2 19 1 4 3 -2 6 -13 5 -11 0 -14 -3 -6 -6z"/>
<path d="M17005 3050 c-3 -5 1 -10 9 -10 9 0 16 5 16 10 0 6 -4 10 -9 10 -6 0
-13 -4 -16 -10z"/>
<path d="M11361 2874 c0 -11 3 -14 6 -6 3 7 2 16 -1 19 -3 4 -6 -2 -5 -13z"/>
<path d="M6203 2800 c0 -30 2 -43 4 -27 2 15 2 39 0 55 -2 15 -4 2 -4 -28z"/>
<path d="M6020 2060 c0 -813 -2 -784 54 -843 43 -44 90 -58 186 -56 l85 2 20
-104 c12 -58 25 -110 29 -117 6 -9 143 -12 596 -12 324 0 591 4 594 8 5 8 -29
142 -43 171 -4 9 -7 23 -7 31 1 13 214 16 1831 20 l1830 5 0 88 0 87 -1857 0
-1857 0 -11 38 c-5 20 -26 96 -45 167 -140 517 -147 539 -157 546 -5 3 -51 4
-101 2 -148 -6 -586 -21 -795 -27 l-194 -6 7 257 c3 142 7 272 7 288 3 60 -2
85 -16 85 -8 0 -16 4 -18 9 -3 8 -101 89 -125 105 -10 6 -13 -146 -13 -744z"/>
<path d="M10138 2753 c7 -3 16 -2 19 1 4 3 -2 6 -13 5 -11 0 -14 -3 -6 -6z"/>
<path d="M6227 2681 c-4 -17 -3 -21 5 -13 5 5 8 16 6 23 -3 8 -7 3 -11 -10z"/>
<path d="M10121 2654 c0 -11 3 -14 6 -6 3 7 2 16 -1 19 -3 4 -6 -2 -5 -13z"/>
<path d="M7695 2610 c-3 -5 -5 -57 -4 -114 1 -57 -2 -109 -5 -115 -5 -7 -76
-11 -221 -11 l-213 0 1 -95 2 -95 1973 0 c1921 0 1973 0 1967 19 -14 46 -5 48
201 56 l195 7 -3 52 -3 51 -40 5 -40 5 3 60 c5 71 14 85 56 85 18 1 44 11 61
25 l30 25 -67 0 c-61 0 -71 -3 -100 -29 -31 -27 -33 -34 -34 -98 l-1 -68 -133
-3 c-109 -2 -135 -6 -145 -19 -11 -15 -64 -15 -591 -9 -371 4 -580 10 -582 16
-5 14 -769 14 -777 0 -4 -6 -72 -10 -171 -10 l-164 0 0 134 0 135 -594 0
c-382 1 -597 -3 -601 -9z"/>
<path d="M7210 2576 c0 -9 5 -16 10 -16 6 0 10 4 10 9 0 6 -4 13 -10 16 -5 3
-10 -1 -10 -9z"/>
<path d="M11792 2506 c14 -10 18 -33 20 -127 l3 -114 65 0 65 0 3 104 c4 141
-3 151 -101 151 -61 -1 -69 -3 -55 -14z"/>
<path d="M7215 2340 c3 -5 8 -10 11 -10 2 0 4 5 4 10 0 6 -5 10 -11 10 -5 0
-7 -4 -4 -10z"/>
<path d="M7213 2280 c0 -25 2 -35 4 -22 2 12 2 32 0 45 -2 12 -4 2 -4 -23z"/>
<path d="M11650 2293 c0 -26 4 -33 20 -33 25 0 25 11 0 41 l-19 24 -1 -32z"/>
<path d="M7215 2210 c3 -5 8 -10 11 -10 2 0 4 5 4 10 0 6 -5 10 -11 10 -5 0
-7 -4 -4 -10z"/>
<path d="M7194 2162 c-9 -5 -9 -10 1 -19 7 -7 17 -8 26 -2 11 7 10 9 -6 10
l-20 0 20 9 c13 6 15 9 5 9 -8 0 -20 -3 -26 -7z"/>
<path d="M7247 2149 c4 -13 8 -18 11 -10 2 7 -1 18 -6 23 -8 8 -9 4 -5 -13z"/>
<path d="M7128 2123 c7 -3 16 -2 19 1 4 3 -2 6 -13 5 -11 0 -14 -3 -6 -6z"/>
</g>
</svg>
